<svg fill="none" height="24" viewBox="0 0 24 24" width="24" xmlns="http://www.w3.org/2000/svg"><path d="m3.44126 9.95574c-1.92363 1.92366-1.92363 5.04246 0 6.96606 1.69475 1.6948 4.31721 1.8964 6.23272.6049l4.25642 4.2564c.302.302.7915.302 1.0935 0 .2745-.2745.2995-.704.0749-1.0067l-.0749-.0868-4.2173-4.2183c1.5136-1.9328 1.3805-4.7358-.3993-6.51556-1.9236-1.92363-5.04242-1.92363-6.96604 0zm13.21304 6.54456c-.2255 1.2875-.548 2.4562-.9526 3.4539l.0294.0284.1246.1403c.2202.2949.3446.6236.378.9518 2.0438-.948 3.7133-2.5672 4.7263-4.5742zm-4.404-.0008 2.2839 2.2869c.2022-.5999.3811-1.2682.5293-1.9916l.058-.2945zm-2.93647-5.4503c1.31967 1.3197 1.31967 3.4594 0 4.7791-1.31971 1.3197-3.45937 1.3197-4.77907 0s-1.3197-3.4594 0-4.7791c1.3197-1.31966 3.45936-1.31966 4.77907 0zm6.13647-1.04945-3.7-.00082c1.0468 1.46617 1.3518 3.31177.8919 5.00127l2.7096.0003c.1131-.9458.1755-1.9534.1755-3.0005 0-.5143-.015-1.0191-.0438-1.5118zm1.5069.00055c.0463.65.0701 1.3182.0701 1.9997 0 .8294-.0353 1.6391-.1033 2.4202l-.0571.5802h4.7026c.2975-.9472.4578-1.9551.4578-3.0004 0-.685-.0688-1.354-.2-2.00028zm-2.095-7.59391c.8808 1.34951 1.5354 3.32912 1.883 5.65374l.0616.43984 4.5909-.0003c-1.0413-2.78674-3.2899-4.98456-6.1095-5.95703l-.3042-.09947zm-2.8364-.40493c-1.2768 0-2.56108 2.38237-3.15739 5.83876.46417.16023.91145.37992 1.33099.65875l5.0872.00074c-.5394-3.80918-1.9044-6.49825-3.2608-6.49825zm-2.83641.40489c-3.01831.89098-5.44233 3.16759-6.53554 6.09332l.99529-.0007c1.12408-.74699 2.44692-1.06952 3.74265-.96759.32265-1.85782.84655-3.46926 1.52748-4.67905l.16223-.27575z" fill="#212121"/></svg>